<svg width="20" height="20" viewBox="0 0 20 20" fill="none" xmlns="http://www.w3.org/2000/svg">
<g clip-path="url(#clip0_1465_1535)">
<path d="M12.4763 5.609C12.1752 5.35205 11.814 5.15174 11.3928 5.00846C10.9713 4.86518 10.506 4.79346 9.99674 4.79346C9.51502 4.79346 9.07174 4.87186 8.66662 5.02889C8.26135 5.18588 7.90611 5.41006 7.60049 5.70119C7.29486 5.99248 7.04705 6.3451 6.85725 6.75908C6.73592 7.02369 6.64393 7.30869 6.58123 7.614C6.52416 7.89252 6.74709 8.15127 7.03607 8.15127H7.87443C8.18217 8.15127 8.44404 7.94451 8.52674 7.65322C8.77209 6.78865 9.26678 6.35639 10.0106 6.35639C10.2328 6.35639 10.4354 6.39162 10.6184 6.46213C10.8012 6.53279 10.9587 6.63166 11.0906 6.75908C11.2226 6.8865 11.3256 7.03541 11.3998 7.20604C11.4738 7.37678 11.5109 7.56447 11.5109 7.76908C11.5109 7.87834 11.5026 7.97967 11.4866 8.07291C11.4703 8.16627 11.4276 8.26639 11.3579 8.37318C11.2885 8.48014 11.1855 8.60299 11.049 8.7417C10.9122 8.88057 10.726 9.04779 10.4899 9.24342C9.94346 9.68928 9.56611 10.1216 9.35768 10.5401C9.25119 10.754 9.17369 11.043 9.12498 11.407C9.07693 11.7674 9.05037 11.9215 9.04533 12.4325C9.04533 12.4353 9.04518 12.4376 9.04518 12.4403H9.04533C9.04533 12.4426 9.04518 12.4443 9.04518 12.4465H10.844C10.844 11.6821 10.8973 11.4797 11.0038 11.2567C11.0546 11.1431 11.1565 11.0076 11.3094 10.8506C11.4622 10.6936 11.6636 10.5128 11.9137 10.3081C12.4204 9.89775 12.7766 9.51533 12.9994 9.15721C13.0013 9.154 13.0034 9.15096 13.0053 9.14775C13.0346 9.09998 13.0702 9.05131 13.0945 9.00447C13.3168 8.60865 13.4279 8.16967 13.4279 7.68732C13.4279 7.26881 13.3445 6.88197 13.1778 6.52705C13.0111 6.17205 12.7772 5.86611 12.4763 5.609Z" fill="#1966CC"/>
<path d="M10.9151 13.1815H9.05769C8.99344 13.1815 8.94141 13.2328 8.94141 13.2958V15.0924C8.94141 15.1556 8.99344 15.2068 9.05769 15.2068H10.9151C10.9794 15.2068 11.0316 15.1556 11.0316 15.0924V13.2958C11.0315 13.2328 10.9793 13.1815 10.9151 13.1815Z" fill="#1966CC"/>
<path d="M10 0C4.47711 0 0 4.47711 0 10C0 15.5229 4.47711 20 10 20C15.5229 20 20 15.5229 20 10C20 4.47711 15.5229 0 10 0ZM10 17.5C5.86457 17.5 2.5 14.1354 2.5 10C2.5 5.86457 5.86457 2.5 10 2.5C14.1354 2.5 17.5 5.86457 17.5 10C17.5 14.1354 14.1354 17.5 10 17.5Z" fill="#1966CC"/>
</g>
<defs>
<clipPath id="clip0_1465_1535">
<rect width="20" height="20" fill="white"/>
</clipPath>
</defs>
</svg>
