<svg width="20" height="20" viewBox="0 0 20 20" fill="none" xmlns="http://www.w3.org/2000/svg">
<path fill-rule="evenodd" clip-rule="evenodd" d="M10.0003 18.3333C14.6027 18.3333 18.3337 14.6023 18.3337 9.99996C18.3337 5.39759 14.6027 1.66663 10.0003 1.66663C5.39795 1.66663 1.66699 5.39759 1.66699 9.99996C1.66699 14.6023 5.39795 18.3333 10.0003 18.3333ZM10.0003 16.6666C13.6822 16.6666 16.667 13.6819 16.667 9.99996C16.667 6.31806 13.6822 3.33329 10.0003 3.33329C6.31843 3.33329 3.33366 6.31806 3.33366 9.99996C3.33366 13.6819 6.31843 16.6666 10.0003 16.6666Z" fill="white"/>
<path fill-rule="evenodd" clip-rule="evenodd" d="M14.167 7.49996C14.4924 7.8254 14.4924 8.35303 14.167 8.67847L9.16699 13.6785C9.00286 13.8426 8.7777 13.9308 8.54576 13.9219C8.31381 13.913 8.09608 13.8078 7.94502 13.6315L5.44502 10.7149C5.1455 10.3654 5.18597 9.83935 5.53541 9.53983C5.88485 9.24032 6.41093 9.28078 6.71045 9.63022L8.6248 11.8636L12.9885 7.49996C13.3139 7.17452 13.8416 7.17452 14.167 7.49996Z" fill="white"/>
</svg>
