<svg width="20" height="20" viewBox="0 0 20 20" fill="none" xmlns="http://www.w3.org/2000/svg">
<path fill-rule="evenodd" clip-rule="evenodd" d="M10.0003 18.3334C14.6027 18.3334 18.3337 14.6025 18.3337 10.0001C18.3337 5.39771 14.6027 1.66675 10.0003 1.66675C5.39795 1.66675 1.66699 5.39771 1.66699 10.0001C1.66699 14.6025 5.39795 18.3334 10.0003 18.3334ZM10.0003 16.6667C13.6822 16.6667 16.667 13.682 16.667 10.0001C16.667 6.31818 13.6822 3.33341 10.0003 3.33341C6.31843 3.33341 3.33366 6.31818 3.33366 10.0001C3.33366 13.682 6.31843 16.6667 10.0003 16.6667Z" fill="white"/>
<path fill-rule="evenodd" clip-rule="evenodd" d="M14.167 7.50008C14.4924 7.82552 14.4924 8.35316 14.167 8.67859L9.16699 13.6786C9.00286 13.8427 8.7777 13.931 8.54576 13.9221C8.31381 13.9131 8.09608 13.8079 7.94502 13.6317L5.44502 10.715C5.1455 10.3656 5.18597 9.83947 5.53541 9.53996C5.88485 9.24044 6.41093 9.28091 6.71045 9.63034L8.6248 11.8638L12.9885 7.50008C13.3139 7.17464 13.8416 7.17464 14.167 7.50008Z" fill="white"/>
</svg>
