<svg width="16" height="16" viewBox="0 0 16 16" fill="none" xmlns="http://www.w3.org/2000/svg">
<g clip-path="url(#clip0_564_2115)">
<path d="M8 0C3.58875 0 0 3.58887 0 8C0 12.4114 3.58875 16 8 16C12.4113 16 16 12.4114 16 8C16 3.58887 12.4113 0 8 0ZM8 14.0952C4.63916 14.0952 1.90478 11.3611 1.90478 8C1.90478 4.63916 4.63916 1.90478 8 1.90478C11.3608 1.90478 14.0952 4.63916 14.0952 8C14.0952 11.3611 11.3608 14.0952 8 14.0952Z" fill="#272727"/>
<path d="M8.07637 3.61743C7.67606 3.61743 7.35153 3.9419 7.35153 4.34228V7.62378L5.03756 9.93774C4.75441 10.2207 4.75441 10.6797 5.03756 10.9629C5.32062 11.2458 5.77956 11.2458 6.06269 10.9629L8.80128 8.22434V7.48165V4.34228C8.80128 3.9419 8.47675 3.61743 8.07637 3.61743Z" fill="#272727"/>
</g>
<defs>
<clipPath id="clip0_564_2115">
<rect width="16" height="16" fill="white"/>
</clipPath>
</defs>
</svg>
