<svg width="20" height="20" viewBox="0 0 20 20" fill="none" xmlns="http://www.w3.org/2000/svg">
<path d="M10.0003 8.82174L11.8695 6.95257C12.1949 6.62718 12.7224 6.62718 13.0478 6.95257C13.3732 7.27796 13.3732 7.80552 13.0478 8.1309L11.1786 10.0001L13.0478 11.8692C13.3732 12.1946 13.3732 12.7222 13.0478 13.0476C12.7224 13.373 12.1949 13.373 11.8695 13.0476L10.0003 11.1784L8.13115 13.0476C7.80576 13.373 7.2782 13.373 6.95281 13.0476C6.62743 12.7222 6.62743 12.1946 6.95281 11.8692L8.82198 10.0001L6.95281 8.1309C6.62743 7.80552 6.62743 7.27796 6.95281 6.95257C7.2782 6.62718 7.80576 6.62718 8.13115 6.95257L10.0003 8.82174Z" fill="white"/>
<path fill-rule="evenodd" clip-rule="evenodd" d="M10.0003 18.3334C14.6027 18.3334 18.3337 14.6025 18.3337 10.0001C18.3337 5.39771 14.6027 1.66675 10.0003 1.66675C5.39795 1.66675 1.66699 5.39771 1.66699 10.0001C1.66699 14.6025 5.39795 18.3334 10.0003 18.3334ZM10.0003 16.6667C13.6822 16.6667 16.667 13.682 16.667 10.0001C16.667 6.31818 13.6822 3.33341 10.0003 3.33341C6.31843 3.33341 3.33366 6.31818 3.33366 10.0001C3.33366 13.682 6.31843 16.6667 10.0003 16.6667Z" fill="white"/>
</svg>
